<svg class="astronaut" height="50px" width="50px" viewBox="0 0 50 50" xmlns="http://www.w3.org/2000/svg">
        
        <path fill="rgb(237,237,237)" fill-opacity="1.000" d="M 24.50 9.50 Q 24.40 9.93 24.78 10.53 Q 25.07 11.00 25.27 10.48 Q 25.63 9.58 25.60 8.57 A 0.60 0.52 85.7 0 1 26.05 7.96 Q 27.36 7.80 27.09 9.29 Q 26.96 10.02 27.52 9.53 Q 28.83 8.39 29.79 8.94 Q 35.55 12.24 35.93 18.19 Q 36.19 22.18 34.06 25.33 Q 31.75 28.72 27.50 29.75 Q 22.48 30.97 18.22 27.52 Q 12.37 22.77 14.50 15.75 Q 15.97 10.91 20.98 8.75 A 0.63 0.58 60.9 0 1 21.71 8.99 Q 23.09 11.05 22.87 8.56 A 0.67 0.59 78.9 0 1 23.27 7.88 Q 24.99 7.32 24.50 9.50 Z M 33.63 20.12 A 8.60 8.60 0 0 0 25.03 11.52 A 8.60 8.60 0 0 0 16.43 20.12 A 8.60 8.60 0 0 0 25.03 28.72 A 8.60 8.60 0 0 0 33.63 20.12 Z"></path>
        
        <path fill="rgb(3,1,3)" fill-opacity="0.996" d="M 33.63 20.12 A 8.60 8.60 0 0 1 25.03 28.72 A 8.60 8.60 0 0 1 16.43 20.12 A 8.60 8.60 0 0 1 25.03 11.52 A 8.60 8.60 0 0 1 33.63 20.12 Z M 17.96 22.75 Q 19.64 27.49 24.50 27.75 Q 28.46 27.96 30.69 25.39 Q 32.69 23.08 32.67 19.71 Q 32.63 14.81 27.25 12.79 Q 23.07 11.56 19.93 14.43 Q 16.17 17.89 17.96 22.75 Z"></path>
        
        <path fill="rgb(237,237,237)" fill-opacity="1.000" d="M 27.25 12.79 Q 27.08 13.89 25.94 13.87 Q 20.60 13.80 19.06 18.81 Q 19.03 20.95 17.96 22.75 Q 16.17 17.89 19.93 14.43 Q 23.07 11.56 27.25 12.79 Z"></path>
        
        <path fill="rgb(152,218,248)" fill-opacity="1.000" d="M 27.25 12.79 Q 32.63 14.81 32.67 19.71 Q 32.69 23.08 30.69 25.39 Q 28.46 27.96 24.50 27.75 Q 19.64 27.49 17.96 22.75 Q 19.03 20.95 19.06 18.81 Q 20.60 13.80 25.94 13.87 Q 27.08 13.89 27.25 12.79 Z"></path>
        
        <path fill="rgb(197,111,59)" fill-opacity="1.000" d="M 12.58 19.99 Q 11.85 21.41 11.75 23.06 Q 11.62 25.04 11.92 27.00 A 1.11 0.83 69.1 0 1 11.67 27.88 Q 11.18 28.34 10.49 28.46 A 0.56 0.52 79.3 0 1 9.89 28.02 Q 8.91 23.50 11.05 19.53 Q 11.31 19.04 11.66 18.66 Q 13.06 17.12 12.87 19.08 Q 12.84 19.48 12.58 19.99 Z"></path>
        
        <path fill="rgb(197,111,59)" fill-opacity="1.000" d="M 37.81 18.44 Q 39.43 19.58 40.00 21.50 Q 40.11 24.76 40.46 28.00 Q 40.54 28.25 40.46 28.50 Q 39.27 28.66 38.46 27.75 Q 39.15 24.19 38.00 20.79 Q 37.34 19.98 37.00 19.00 Q 36.48 17.50 37.81 18.44 Z"></path>
        
        <path fill="rgb(3,1,3)" fill-opacity="0.996" d="M 38.00 20.79 Q 39.15 24.19 38.46 27.75 Q 37.62 27.71 37.71 26.75 Q 37.19 24.22 37.96 21.75 L 38.00 20.79 Z"></path>
        
        <path fill="rgb(48,24,28)" fill-opacity="0.000" d="M 37.96 21.75 Q 37.19 24.22 37.71 26.75 Q 35.74 27.88 35.25 25.50 Q 35.07 24.63 36.94 21.44 Q 37.56 20.37 37.96 21.75 Z"></path>
        
        <path fill="rgb(48,24,28)" fill-opacity="0.000" d="M 13.78 22.56 Q 13.90 23.62 14.43 24.56 Q 15.53 26.51 13.54 26.99 A 0.54 0.54 0.0 0 1 12.89 26.60 Q 12.22 24.00 12.85 22.25 Q 13.17 21.35 13.61 22.00 Q 13.73 22.19 13.78 22.56 Z"></path>
        
        <path fill="rgb(237,237,237)" fill-opacity="1.000" d="M 17.02 27.76 Q 20.77 31.31 25.81 30.94 Q 30.39 30.60 33.85 27.27 Q 34.10 27.03 34.34 26.99 Q 34.83 26.93 34.75 27.43 Q 34.72 27.66 34.51 27.87 Q 25.72 36.65 16.22 28.56 Q 15.93 28.31 15.73 27.98 Q 14.49 25.95 16.44 27.28 Q 16.70 27.46 17.02 27.76 Z"></path>
        
        <path fill="rgb(247,87,88)" fill-opacity="1.000" d="M 14.69 28.06 Q 16.43 28.72 16.56 30.44 L 17.72 44.79 A 0.75 0.54 80.6 0 1 17.37 45.50 Q 17.14 45.59 16.88 45.52 Q 16.22 45.36 15.94 45.24 Q 15.64 45.11 15.50 44.75 Q 14.85 36.73 13.85 28.76 Q 13.80 28.34 13.96 28.15 Q 14.19 27.88 14.69 28.06 Z"></path>
        
        <path fill="rgb(247,87,88)" fill-opacity="1.000" d="M 36.12 28.80 Q 35.08 36.41 34.55 44.07 Q 34.48 44.98 34.12 45.32 Q 33.65 45.77 32.94 45.48 A 0.86 0.76 -82.3 0 1 32.45 44.75 Q 32.38 43.29 32.69 39.94 Q 33.11 35.38 33.30 31.04 A 1.47 1.42 -26.2 0 1 33.59 30.24 Q 35.01 28.38 35.73 28.19 A 0.52 0.35 -88.9 0 1 36.12 28.80 Z"></path>
        
        <path fill="rgb(254,229,110)" fill-opacity="1.000" d="M 13.21 30.25 Q 9.39 31.63 9.25 35.71 Q 8.19 36.47 8.06 35.44 Q 7.53 31.10 11.69 28.94 Q 13.42 28.04 13.21 30.25 Z"></path>
        
        <path fill="rgb(253,206,34)" fill-opacity="1.000" d="M 39.87 29.88 Q 41.86 31.72 42.03 35.15 A 0.56 0.55 88.5 0 1 41.48 35.74 L 36.81 35.71 A 0.50 0.48 -88.9 0 1 36.33 35.19 Q 36.42 33.46 36.75 31.75 Q 36.22 26.49 39.87 29.88 Z"></path>
        
        <path fill="rgb(253,206,34)" fill-opacity="1.000" d="M 13.21 30.25 L 13.77 35.33 A 0.48 0.46 -2.1 0 1 13.28 35.83 L 9.25 35.71 Q 9.39 31.63 13.21 30.25 Z"></path>
        
        <path fill="rgb(253,206,34)" fill-opacity="1.000" d="M 18.12 31.40 Q 25.64 34.80 31.70 31.43 Q 33.28 30.55 32.53 32.20 Q 32.25 32.83 32.20 34.50 Q 32.05 39.67 31.38 44.81 A 0.61 0.57 -86.0 0 1 30.81 45.34 L 19.45 45.45 A 0.83 0.80 87.3 0 1 18.64 44.68 L 17.68 31.70 A 0.31 0.31 -79.2 0 1 18.12 31.40 Z M 27.9001 35.9998 A 0.47 0.47 0 0 0 27.4317 35.5282 L 22.7517 35.5118 A 0.47 0.47 0 0 0 22.2801 35.9802 L 22.2799 36.0202 A 0.47 0.47 0 0 0 22.7483 36.4918 L 27.4283 36.5082 A 0.47 0.47 0 0 0 27.8999 36.0398 L 27.9001 35.9998 Z M 28.6799 39.0883 A 0.42 0.42 0 0 0 28.2681 38.6604 L 21.9892 38.5398 A 0.42 0.42 0 0 0 21.5612 38.9517 L 21.5601 39.0117 A 0.42 0.42 0 0 0 21.9719 39.4396 L 28.2508 39.5602 A 0.42 0.42 0 0 0 28.6788 39.1483 L 28.6799 39.0883 Z"></path>
        
        <rect fill="rgb(3,1,3)" fill-opacity="0.996" x="-2.81" y="-0.49" width="5.62" height="0.98" rx="0.47" transform="translate(25.09,36.01) rotate(0.2)"></rect>
        
        <rect fill="rgb(237,237,237)" fill-opacity="1.000" x="-3.15" y="-1.14" width="6.30" height="2.28" rx="0.65" transform="translate(11.02,37.86) rotate(0.9)"></rect>
        
        <rect fill="rgb(237,237,237)" fill-opacity="1.000" x="-3.19" y="-1.12" width="6.38" height="2.24" rx="0.86" transform="translate(39.00,37.88) rotate(-0.4)"></rect>
        
        <rect fill="rgb(3,1,3)" fill-opacity="0.996" x="-3.56" y="-0.45" width="7.12" height="0.90" rx="0.42" transform="translate(25.12,39.05) rotate(1.1)"></rect>
        
        <path fill="rgb(254,229,110)" fill-opacity="1.000" d="M 9.50 39.79 Q 10.34 40.34 9.87 40.92 Q 9.42 41.47 9.38 41.73 L 8.75 45.46 Q 7.87 45.33 7.97 44.44 Q 8.19 42.55 7.81 40.69 Q 7.84 39.29 9.50 39.79 Z"></path>
        
        <path fill="rgb(253,206,34)" fill-opacity="1.000" d="M 9.50 39.79 L 13.69 39.79 A 0.67 0.64 82.1 0 1 14.33 40.30 Q 14.56 41.18 14.56 42.10 Q 14.56 42.86 14.78 43.86 Q 15.27 46.08 12.25 45.50 Q 10.50 45.53 8.75 45.46 L 9.38 41.73 Q 9.42 41.47 9.87 40.92 Q 10.34 40.34 9.50 39.79 Z"></path>
        
        <rect fill="rgb(253,206,34)" fill-opacity="1.000" x="-3.24" y="-2.83" width="6.48" height="5.66" rx="0.56" transform="translate(38.76,42.65) rotate(1.0)"></rect>
        
        <path fill="rgb(3,1,3)" fill-opacity="0.996" d="M 1.90 46.20 Q 1.64 46.04 1.74 45.76 A 0.56 0.44 12.2 0 1 2.31 45.48 Q 4.05 45.74 2.47 46.23 Q 2.13 46.34 1.90 46.20 Z"></path>
        
        </svg>
