    <svg class="satalite" height="50px" viewBox="0 0 50 50" xmlns="http://www.w3.org/2000/svg">
    
    <path fill="rgb(255,255,255)" fill-opacity="1.000" d="M 13.67 5.52 L 21.90 13.56 A 0.82 0.81 45.7 0 1 21.89 14.74 L 16.09 20.20 A 0.55 0.54 -43.8 0 1 15.33 20.19 L 7.55 12.38 Q 5.78 10.60 7.47 8.95 L 11.01 5.49 Q 12.33 4.21 13.67 5.52 Z"></path>
    
    <path fill="rgb(255,255,255)" fill-opacity="1.000" d="M 34.21 13.04 Q 36.32 14.96 37.86 17.05 Q 39.14 18.80 37.70 20.42 Q 32.93 25.81 27.59 30.60 Q 25.89 32.12 23.77 31.27 A 0.32 0.32 10.8 0 0 23.33 31.56 Q 23.34 33.57 22.38 35.72 A 0.93 0.92 -55.2 0 1 20.88 36.00 L 13.84 28.86 A 0.52 0.50 45.4 0 1 13.83 28.14 Q 15.72 26.23 18.24 26.86 Q 19.31 27.12 18.82 26.14 Q 18.28 25.06 18.47 24.02 Q 18.61 23.28 19.50 22.31 Q 23.84 17.62 28.41 13.16 Q 31.27 10.38 34.21 13.04 Z"></path>
    
    <path fill="rgb(255,255,255)" fill-opacity="1.000" d="M 36.54 28.16 L 44.08 35.70 Q 45.93 37.56 44.34 39.16 L 40.83 42.70 Q 39.47 44.07 37.99 42.65 L 29.57 34.57 A 0.54 0.52 -45.7 0 1 29.57 33.81 L 35.21 28.16 A 0.95 0.94 -44.8 0 1 36.54 28.16 Z"></path>
    
    </svg>